<?xml version="1.0" encoding="UTF-8" standalone="no"?>
<!DOCTYPE svg PUBLIC "-//W3C//DTD SVG 1.1//EN" "http://www.w3.org/Graphics/SVG/1.1/DTD/svg11.dtd">
<svg width="100%" height="100%" viewBox="0 0 512 512" version="1.1" xmlns="http://www.w3.org/2000/svg" xmlns:xlink="http://www.w3.org/1999/xlink" xml:space="preserve" xmlns:serif="http://www.serif.com/" style="fill-rule:evenodd;clip-rule:evenodd;stroke-linejoin:round;stroke-miterlimit:2;">
    <rect x="0" y="0" width="512" height="512" style="fill:rgb(52,47,55);"/>
    <g transform="matrix(1,0,0,1,220.641693,28.1)">
        <g transform="matrix(300,0,0,300,-165.053668,335)">
            <path d="M0.032,-0L0.032,-0.049L0.053,-0.049C0.067,-0.049 0.08,-0.05 0.091,-0.054C0.102,-0.057 0.11,-0.063 0.116,-0.071C0.123,-0.08 0.126,-0.093 0.126,-0.109L0.126,-0.604C0.126,-0.621 0.123,-0.634 0.116,-0.643C0.11,-0.651 0.102,-0.657 0.092,-0.66C0.082,-0.664 0.07,-0.665 0.058,-0.665L0.032,-0.665L0.032,-0.714L0.567,-0.714L0.572,-0.533L0.509,-0.533L0.504,-0.579C0.501,-0.605 0.493,-0.624 0.48,-0.637C0.467,-0.65 0.448,-0.657 0.423,-0.657L0.262,-0.657L0.262,-0.378L0.501,-0.378L0.501,-0.323L0.262,-0.323L0.262,-0.113C0.262,-0.096 0.265,-0.083 0.271,-0.073C0.277,-0.064 0.285,-0.058 0.296,-0.054C0.307,-0.051 0.32,-0.049 0.334,-0.049L0.377,-0.049L0.377,-0L0.032,-0Z" style="fill:rgb(79,173,212);fill-rule:nonzero;stroke:rgb(194,225,194);stroke-width:0.01px;"/>
        </g>
        <g transform="matrix(300,0,0,300,17.778094,335)">
            <path d="M0.032,-0L0.032,-0.049L0.054,-0.049C0.066,-0.049 0.078,-0.05 0.089,-0.053C0.1,-0.056 0.108,-0.062 0.115,-0.071C0.122,-0.08 0.126,-0.093 0.126,-0.112L0.126,-0.601C0.126,-0.62 0.122,-0.634 0.115,-0.643C0.108,-0.652 0.099,-0.658 0.088,-0.661C0.077,-0.664 0.066,-0.665 0.054,-0.665L0.032,-0.665L0.032,-0.714L0.334,-0.714C0.398,-0.714 0.45,-0.707 0.49,-0.692C0.53,-0.677 0.56,-0.655 0.579,-0.627C0.597,-0.599 0.607,-0.564 0.607,-0.522C0.607,-0.486 0.6,-0.456 0.586,-0.431C0.572,-0.407 0.554,-0.387 0.532,-0.373C0.51,-0.359 0.486,-0.347 0.462,-0.34L0.59,-0.131C0.608,-0.103 0.624,-0.082 0.639,-0.069C0.654,-0.056 0.671,-0.049 0.69,-0.049L0.695,-0.049L0.695,-0L0.669,-0C0.628,-0 0.595,-0.002 0.57,-0.007C0.544,-0.011 0.523,-0.02 0.506,-0.033C0.489,-0.046 0.473,-0.065 0.459,-0.09L0.335,-0.312L0.262,-0.312L0.262,-0.112C0.262,-0.093 0.266,-0.08 0.272,-0.071C0.278,-0.062 0.287,-0.056 0.297,-0.053C0.308,-0.05 0.32,-0.049 0.333,-0.049L0.35,-0.049L0.35,-0L0.032,-0ZM0.323,-0.366C0.375,-0.366 0.411,-0.378 0.431,-0.403C0.452,-0.428 0.462,-0.466 0.462,-0.516C0.462,-0.551 0.457,-0.579 0.447,-0.599C0.438,-0.62 0.423,-0.636 0.402,-0.645C0.382,-0.654 0.355,-0.659 0.321,-0.659L0.262,-0.659L0.262,-0.366L0.323,-0.366Z" style="fill:rgb(79,173,212);fill-rule:nonzero;stroke:rgb(194,225,194);stroke-width:0.01px;"/>
        </g>
        <g transform="matrix(300,0,0,300,225.053668,335)">
        </g>
    </g>
</svg>
