<svg width="72" height="72" viewBox="0 0 72 72" fill="none" xmlns="http://www.w3.org/2000/svg">
<path d="M13.6548 52V21.4545H33.8793V26.7791H20.1129V34.0575H32.5369V39.3821H20.1129V52H13.6548ZM36.1232 52V21.4545H48.1743C50.4811 21.4545 52.4499 21.8672 54.0806 22.6925C55.7212 23.5078 56.9691 24.6662 57.8242 26.1676C58.6892 27.6591 59.1218 29.4141 59.1218 31.4325C59.1218 33.4609 58.6843 35.206 57.8093 36.6676C56.9343 38.1193 55.6665 39.233 54.006 40.0085C52.3554 40.7841 50.3569 41.1719 48.0103 41.1719H39.9414V35.9815H46.9662C48.1992 35.9815 49.2233 35.8125 50.0387 35.4744C50.854 35.1364 51.4605 34.6293 51.8583 33.9531C52.2659 33.277 52.4698 32.4368 52.4698 31.4325C52.4698 30.4183 52.2659 29.5632 51.8583 28.8672C51.4605 28.1712 50.849 27.6442 50.0238 27.2862C49.2084 26.9183 48.1793 26.7344 46.9364 26.7344H42.5813V52H36.1232ZM52.6189 38.0994L60.2105 52H53.0813L45.6537 38.0994H52.6189Z" fill="#4EACD4"/>
</svg>

